<svg width="1542" height="1542" xmlns="http://www.w3.org/2000/svg" xmlns:xlink="http://www.w3.org/1999/xlink"><svg viewBox="-1 -1 428.67 428.67" width="514" height="514" x="514" xmlns="http://www.w3.org/2000/svg"><path d="M320.025 42.667h-22.004C298.021 19.102 278.918 0 255.354 0h-84.271c-23.564 0-42.667 19.102-42.667 42.667h-21.75C83.102 42.667 64 61.769 64 85.333V384c0 23.564 19.103 42.667 42.667 42.667H320c23.564 0 42.667-19.103 42.667-42.667V85.333c0-23.556-19.09-42.653-42.642-42.666zM320 384H106.667V85.333h64.417V42.667h84.271v42.667H320V384z" fill="#d59541"/><path fill="#d59541" d="M277.333 213.247H236v-106.58l-86.667 150.571h41.999v105.429z"/></svg><svg data-name="Layer 1" width="66" height="66" viewBox="-1 -1 66 66" x="646" y="1028" xmlns="http://www.w3.org/2000/svg"><path d="M.72.08A.67.67 0 0 0 0 .8v46.48a.72.72 0 0 0 .72.72H48l16 16V.72a.67.67 0 0 0-.72-.72H.8z" fill="#2f5572"/></svg><svg width="514" height="514" viewBox="-1 -1 385.34 385.35" y="514" xmlns="http://www.w3.org/2000/svg"><path d="M273.217 106.899c-27.181-44.864-57.413-83.693-73.016-102.846a11 11 0 0 0-17.057.001c-15.602 19.159-45.834 58.001-73.015 102.869-35.028 57.823-52.789 105.63-52.789 142.09 0 74.071 60.261 134.332 134.332 134.332s134.332-60.261 134.332-134.332c.001-36.484-17.758-84.298-52.787-142.114zm-63.111 226.969a97.748 97.748 0 0 1-24.205 3.022c-50.186 0-91.015-37.929-91.015-84.55 0-11.255 2.97-24.405 8.825-39.083.989-2.48 3.807-3.895 6.585-3.295 2.776.598 4.64 3.018 4.354 5.65a85.066 85.066 0 0 0-.516 9.136c0 50.735 40.881 93.221 95.093 98.821 2.698.279 4.803 2.297 5.018 4.812.216 2.515-1.522 4.817-4.139 5.487z" fill="#d59541"/></svg><svg data-name="Layer 1" width="23.23" height="44.01" viewBox="-1 -1 23.23 44.01" x="831.78" y="1028" xmlns="http://www.w3.org/2000/svg"><path d="M21.23.31V7H17.4a3.55 3.55 0 0 0-2.85.91 4.26 4.26 0 0 0-.74 2.72v4.77H21l-1 7.47h-6.19V42H6.27V22.85H0v-7.47h6.27V9.85q0-4.69 2.55-7.28A9 9 0 0 1 15.63 0a39.57 39.57 0 0 1 5.6.31z" fill="#fff"/></svg><svg viewBox="-1 -1 29.5 29.5" width="514" height="514" x="1028" xmlns="http://www.w3.org/2000/svg"><path d="M13.747 0C6.155 0 .001 6.156.001 13.748c0 7.593 6.154 13.747 13.746 13.747s13.746-6.154 13.746-13.747C27.493 6.156 21.339 0 13.747 0zM14.8 21.725a.38.38 0 0 1-.227.077l-.159-.036a.366.366 0 0 1-.203-.326v-5.596l-7.454 5.881a.368.368 0 0 1-.224.077l-.159-.036a.362.362 0 0 1-.205-.326V6.059c0-.141.08-.267.205-.326a.36.36 0 0 1 .383.038l7.454 5.878v-5.59a.365.365 0 0 1 .589-.287l9.75 7.691a.368.368 0 0 1 .137.283.373.373 0 0 1-.137.286l-9.75 7.693z" fill="#d59541"/></svg><svg data-name="Layer 1" width="58" height="66" viewBox="-1 -1 58 66" x="642" y="1094" xmlns="http://www.w3.org/2000/svg"><path d="M16 0C24 16 0 24 0 40s16 24 16 24C8.16 48.16 32 40 32 24S16 0 16 0zm24 24c8 16-16 24-16 40h24c3.2 0 8-4 8-16 0-16-16-24-16-24z" fill="#d4953d"/></svg><svg width="514" height="514" viewBox="-1 -1 475.03 475.03" y="1028" xmlns="http://www.w3.org/2000/svg"><path d="M190.444 230.819c2.599 0 4.919-1.056 6.534-2.971 1.814-2.151 2.499-5.17 1.928-8.5l-5.7-33.24c-.327-1.91.794-5.362 2.182-6.715l24.147-23.538c3.038-2.961 4.151-6.596 3.054-9.973-1.097-3.376-4.134-5.663-8.333-6.273l-33.37-4.85c-1.919-.279-4.855-2.412-5.713-4.15l-14.924-30.236c-1.877-3.805-4.991-5.987-8.542-5.987s-6.665 2.183-8.542 5.987l-14.924 30.237c-.857 1.737-3.793 3.87-5.711 4.149l-33.372 4.85c-4.199.61-7.236 2.897-8.333 6.274-1.097 3.376.017 7.011 3.055 9.973l24.147 23.537c1.388 1.353 2.51 4.804 2.182 6.714l-5.701 33.24c-.571 3.331.113 6.35 1.927 8.501 2.702 3.206 7.408 3.898 11.893 1.54l29.849-15.693c.627-.329 1.884-.682 3.53-.682s2.903.353 3.53.682l29.847 15.693c1.806.95 3.609 1.431 5.36 1.431zm-38.736-29.806c-3.351 0-6.587.731-9.114 2.061l-25.41 13.359 4.854-28.297c.992-5.786-1.43-13.239-5.633-17.337l-20.556-20.036 28.409-4.129c5.81-.845 12.149-5.452 14.746-10.715l12.705-25.74 12.705 25.74c2.597 5.264 8.937 9.87 14.747 10.715l28.408 4.129-20.556 20.037c-4.203 4.097-6.625 11.549-5.633 17.335l4.853 28.298-25.409-13.359c-2.529-1.329-5.766-2.061-9.116-2.061zm204.483 29.806c2.6 0 4.919-1.056 6.534-2.971 1.814-2.151 2.499-5.171 1.927-8.501l-5.702-33.24c-.327-1.91.795-5.361 2.183-6.714l24.147-23.538c3.038-2.961 4.151-6.596 3.055-9.973-1.098-3.376-4.135-5.663-8.333-6.273l-33.369-4.85c-1.919-.279-4.855-2.412-5.713-4.15l-14.924-30.236c-1.878-3.805-4.991-5.987-8.542-5.987s-6.664 2.183-8.542 5.987l-14.924 30.235c-.857 1.738-3.794 3.872-5.712 4.151l-33.372 4.85c-4.199.61-7.236 2.897-8.333 6.274-1.097 3.376.018 7.011 3.055 9.973l24.147 23.537c1.388 1.353 2.51 4.804 2.182 6.714l-5.7 33.24c-.571 3.331.112 6.35 1.927 8.501 2.703 3.206 7.406 3.898 11.894 1.54l29.848-15.693c.627-.329 1.884-.682 3.53-.682s2.902.353 3.529.682l29.85 15.693c1.806.95 3.608 1.431 5.358 1.431zm-38.737-29.806c-3.352 0-6.588.731-9.115 2.061l-25.408 13.359 4.853-28.297c.992-5.786-1.43-13.239-5.633-17.337l-20.556-20.036 28.409-4.129c5.809-.845 12.147-5.451 14.746-10.715l12.705-25.74 12.704 25.74c2.598 5.264 8.938 9.87 14.748 10.715l28.407 4.129-20.555 20.037c-4.204 4.097-6.625 11.55-5.633 17.336l4.854 28.297-25.41-13.359c-2.529-1.329-5.765-2.061-9.116-2.061zM133.843 287.44l-33.372-4.853c-1.917-.278-4.853-2.412-5.711-4.149L79.836 248.2c-1.878-3.803-4.991-5.984-8.542-5.984s-6.664 2.182-8.542 5.986l-14.923 30.234c-.858 1.739-3.794 3.873-5.712 4.151L8.746 287.44c-4.198.608-7.236 2.896-8.333 6.271-1.098 3.378.016 7.014 3.054 9.977l24.147 23.535c1.388 1.354 2.51 4.807 2.182 6.717l-5.7 33.232c-.571 3.331.113 6.352 1.928 8.502 2.703 3.205 7.409 3.898 11.893 1.54l29.847-15.69c.627-.33 1.884-.683 3.53-.683s2.903.353 3.53.683l29.847 15.69c1.805.949 3.608 1.431 5.358 1.431 2.599 0 4.92-1.056 6.535-2.972 1.814-2.151 2.499-5.171 1.927-8.5l-5.699-33.233c-.328-1.91.794-5.363 2.182-6.715l24.148-23.539c3.038-2.963 4.151-6.599 3.053-9.976-1.098-3.374-4.135-5.661-8.332-6.27zm-27.246 31.193c-4.203 4.099-6.624 11.552-5.632 17.336l4.852 28.292-25.409-13.357c-2.527-1.328-5.764-2.061-9.114-2.061-3.35 0-6.587.73-9.114 2.061L36.771 364.26l4.853-28.291c.992-5.786-1.429-13.239-5.633-17.338l-20.558-20.037 28.409-4.131c5.809-.843 12.149-5.449 14.748-10.716l12.704-25.738 12.705 25.74c2.599 5.265 8.939 9.871 14.747 10.714l28.41 4.131-20.559 20.039zm192.467-31.193l-33.372-4.853c-1.917-.278-4.853-2.412-5.711-4.149L245.058 248.2c-1.878-3.803-4.991-5.984-8.542-5.984s-6.664 2.182-8.542 5.986l-14.923 30.234c-.858 1.739-3.794 3.873-5.712 4.151l-33.371 4.853c-4.198.608-7.236 2.896-8.333 6.271-1.098 3.378.016 7.014 3.054 9.977l24.147 23.535c1.388 1.354 2.51 4.807 2.182 6.717l-5.7 33.232c-.571 3.331.113 6.35 1.927 8.502 2.703 3.205 7.405 3.898 11.893 1.54l29.847-15.69c.627-.33 1.885-.683 3.532-.683 1.646 0 2.902.353 3.529.683l29.848 15.69c1.805.949 3.607 1.431 5.357 1.431 2.6 0 4.921-1.056 6.535-2.972 1.814-2.151 2.499-5.171 1.928-8.501l-5.7-33.232c-.328-1.91.794-5.363 2.182-6.715l24.147-23.537c3.039-2.963 4.151-6.599 3.054-9.977-1.097-3.375-4.135-5.662-8.333-6.271zm-27.246 31.193c-4.203 4.099-6.625 11.551-5.632 17.337l4.852 28.291-25.408-13.357c-2.526-1.328-5.764-2.061-9.114-2.061s-6.587.73-9.115 2.061l-25.409 13.357 4.853-28.291c.992-5.786-1.429-13.238-5.633-17.338l-20.558-20.037 28.409-4.131c5.809-.844 12.149-5.449 14.748-10.715l12.704-25.74 12.706 25.741c2.599 5.265 8.938 9.87 14.747 10.714l28.41 4.131-20.56 20.038zm197.746-14.946c3.038-2.961 4.151-6.597 3.054-9.975-1.098-3.377-4.135-5.663-8.333-6.271l-33.372-4.853c-1.918-.278-4.854-2.412-5.712-4.149L410.278 248.2c-1.878-3.803-4.992-5.985-8.542-5.985-3.551 0-6.664 2.183-8.542 5.987l-14.924 30.236c-.857 1.737-3.794 3.871-5.713 4.149l-33.369 4.853c-4.198.608-7.234 2.896-8.333 6.271-1.098 3.377.015 7.013 3.054 9.978l24.146 23.535c1.388 1.354 2.51 4.807 2.183 6.717l-5.7 33.232c-.57 3.331.113 6.35 1.929 8.502 1.615 1.915 3.936 2.971 6.535 2.971 1.75 0 3.553-.48 5.357-1.431l29.848-15.69c.627-.33 1.883-.683 3.528-.683 1.647 0 2.905.353 3.531.683l29.849 15.691c4.486 2.355 9.19 1.665 11.893-1.542 1.813-2.151 2.499-5.17 1.927-8.501l-5.7-33.232c-.328-1.91.794-5.363 2.183-6.716l24.146-23.538zm-32.523 14.946c-4.204 4.099-6.625 11.551-5.634 17.337l4.854 28.291-25.41-13.357c-2.527-1.328-5.764-2.061-9.114-2.061-3.35 0-6.587.732-9.112 2.061l-25.409 13.357 4.852-28.291c.992-5.785-1.429-13.238-5.633-17.338l-20.557-20.038 28.407-4.13c5.811-.844 12.15-5.45 14.748-10.715l12.705-25.74 12.705 25.741c2.6 5.265 8.939 9.87 14.747 10.714l28.411 4.131-20.56 20.038z" fill="#2f5572"/></svg><svg data-name="Layer 1" width="66" height="66" viewBox="-1 -1 66 66" x="580" y="1028" xmlns="http://www.w3.org/2000/svg"><path d="M32 0a32 32 0 1 0 32 32A32 32 0 0 0 32 0zm0 8a23.75 23.75 0 0 1 7.52 1.52c-1.68 1.6-3.6 3-3.28 4.48s5.52 1 5.52 4c0 2.16-3.36 2.8-1 5.28 2.8 2.8-5.12 7.84-5.28 11.52-.24 6.64 6.72 7.76 12.24 7.76 3.36 0 4.24 1.6 4 3.52a24.07 24.07 0 0 1-19.76 10 22.94 22.94 0 0 1-8.48-1.76c1.76-3.52-2.24-10.48-6-12.72-1.84-1.84-5.76-1.12-8-2a23.49 23.49 0 0 1-1.52-6.72 1.42 1.42 0 0 1 1.28-.72c1.52 0 3.6 3 4.72 2.72 1.4-.32-5.96-10.48-2.52-12.48 1.6-1 4.8 3.12 3.76-1.28-1-4.08 2.88-2.24 5.28-3.28 2.08-.88 3.6-3.28 1-4.72a8.55 8.55 0 0 1-1.76-1.52A23.75 23.75 0 0 1 32 8.08V8zm18.48 8.72A26.46 26.46 0 0 1 54 22.48v.24a11.78 11.78 0 0 1-1.76 1.76C50 26.72 49.68 22.8 48.72 22c-1-1-4.8.16-5.28-1-.56-1.48 4-3.4 7.04-4.28z" fill="#d4953f"/></svg><svg data-name="Layer 1" width="44.01" height="44.01" viewBox="-1 -1 44.01 44.01" x="855.01" y="1028" xmlns="http://www.w3.org/2000/svg"><path d="M37.25 35.49V17.77h-3.69a11.77 11.77 0 0 1 .57 3.58 12.12 12.12 0 0 1-1.75 6.36 12.76 12.76 0 0 1-4.76 4.59 13.13 13.13 0 0 1-6.56 1.7 12.78 12.78 0 0 1-9.19-3.71 12 12 0 0 1-3.83-9 11.77 11.77 0 0 1 .49-3.56H4.68v17.76a1.63 1.63 0 0 0 1.6 1.67h29.3a1.63 1.63 0 0 0 1.17-.47 1.59 1.59 0 0 0 .5-1.2zm-7.77-14.57A7.75 7.75 0 0 0 27 15.14a8.28 8.28 0 0 0-6-2.4 8.25 8.25 0 0 0-5.91 2.39 7.75 7.75 0 0 0-2.47 5.78 7.75 7.75 0 0 0 2.47 5.79A8.25 8.25 0 0 0 21 29.1a8.28 8.28 0 0 0 6-2.4 7.75 7.75 0 0 0 2.48-5.78zm7.76-9.84V6.56a1.84 1.84 0 0 0-.54-1.31 1.8 1.8 0 0 0-1.31-.56h-4.78a1.8 1.8 0 0 0-1.31.56 1.84 1.84 0 0 0-.54 1.31v4.52A1.87 1.87 0 0 0 30.6 13h4.8a1.87 1.87 0 0 0 1.85-1.89zM42 5.39v31.23A5.41 5.41 0 0 1 36.62 42H5.39a5.19 5.19 0 0 1-3.8-1.59A5.19 5.19 0 0 1 0 36.62V5.39a5.19 5.19 0 0 1 1.59-3.8A5.19 5.19 0 0 1 5.39 0h31.23a5.19 5.19 0 0 1 3.8 1.59A5.19 5.19 0 0 1 42 5.39z" fill="#fff"/></svg><svg viewBox="-1 -1 514 514" width="514" height="514" xmlns="http://www.w3.org/2000/svg"><path d="M511.955 204.025c-.427-13.474-11.307-24.32-24.789-24.781l-3.55-.043c-8.277 0-31.258.802-59.674 6.332-5.086-38.4-15.386-65.664-16.239-67.84a25.57 25.57 0 0 0-14.063-14.37 25.627 25.627 0 0 0-20.104.221c-1.877.828-22.554 10.146-48.35 28.305-22.605-43.008-48.759-70.733-50.679-72.738a25.608 25.608 0 0 0-36.992-.009c-1.92 2.005-28.109 29.773-50.722 72.823-25.737-18.108-46.438-27.563-48.307-28.39a25.63 25.63 0 0 0-10.308-2.167c-3.328 0-6.656.648-9.796 1.946a25.622 25.622 0 0 0-14.063 14.37c-.845 2.176-11.145 29.431-16.23 67.84-28.433-5.538-51.405-6.323-59.682-6.323l-3.567.043C11.366 179.705.477 190.551.051 204.025c-.154 4.796-2.876 118.349 67.746 188.979 64.521 64.521 165.769 67.789 185.412 67.789l2.628-.034c.051 0 .102.034.154.034.051 0 .102-.034.154-.034l2.628.034c19.644 0 120.892-3.268 185.412-67.789 70.645-70.622 67.923-184.175 67.77-188.979zm-128.111-77.056s10.257 26.863 14.942 64.563c-14.831 4.156-30.242 9.737-45.542 17.203-3.968-19.055-9.916-36.915-16.922-53.248 26.146-18.944 47.522-28.518 47.522-28.518zm-255.676 0s21.376 9.523 47.539 28.467c-7.023 16.384-12.996 34.313-16.964 53.436-15.3-7.467-30.686-13.133-45.525-17.297 4.684-37.717 14.95-64.606 14.95-64.606zM85.911 374.905C22.303 311.298 25.64 204.836 25.64 204.836s.964-.026 2.756-.026c13.414 0 73.199 2.133 126.182 30.677-.614 6.733-.973 13.568-.973 20.514 0 78.805 42.769 145.374 67.268 177.075-36.701-4.36-94.471-17.68-134.962-58.171zm170.658 59.691c-.495-.162-.981-.316-1.613-.546-9.011-9.822-75.75-85.76-75.75-178.048 0-98.97 76.8-179.2 76.8-179.2s76.8 80.23 76.8 179.2c0 94.967-70.52 172.467-76.237 178.594zm169.54-59.691c-40.491 40.491-98.261 53.811-134.963 58.172 24.491-31.701 67.26-98.27 67.26-177.075 0-6.989-.358-13.867-.99-20.642 52.983-28.518 112.794-30.558 126.199-30.558 1.792 0 2.756.026 2.756.026s3.337 106.47-60.262 170.077z" fill="#2f5572"/></svg><svg data-name="Layer 1" width="66" height="50" viewBox="-1 -1 66 50" x="712" y="1028" xmlns="http://www.w3.org/2000/svg"><path d="M0 0v8l32 16L64 8V0H0zm0 16v32h64V16L32 32z" fill="#2f5572"/></svg><svg data-name="Layer 1" width="66" height="66" viewBox="-1 -1 66 66" x="514" y="1094" xmlns="http://www.w3.org/2000/svg"><path d="M35.96 0a20.42 20.42 0 0 0-20 16 16 16 0 0 0-16 16 15.4 15.4 0 0 0 4.27 10.72A11.88 11.88 0 0 1 11.96 40a10.51 10.51 0 0 1 4.47 1 12 12 0 0 1 11.53-9 12.06 12.06 0 0 1 11.51 9 11.84 11.84 0 0 1 4.49-1 11.94 11.94 0 0 1 11 7.52 12.07 12.07 0 0 0 9-11.52c0-5.2-3.36-10.32-8-12v-4a20 20 0 0 0-20-20zm-9.27 40a4 4 0 0 0-2.73 4v16a4 4 0 1 0 8 0V44a4 4 0 0 0-4.71-4h-.56zm-16 8a4 4 0 0 0-2.73 4v8a4 4 0 1 0 8 0v-8a4 4 0 0 0-4.71-4h-.54zm32 0a4 4 0 0 0-2.73 4v8a4 4 0 1 0 8 0v-8a4 4 0 0 0-4.71-4h-.58z" fill="#d4953f"/></svg><svg data-name="Layer 1" width="66" height="66" viewBox="-1 -1 66 66" x="514" y="1028" xmlns="http://www.w3.org/2000/svg"><path d="M32 0l-8 24H0l20 16-8 24 20-16 20 16-8-24 20-16H40z" fill="#d4953f"/></svg><svg width="514" height="514" viewBox="-1 -1 440.54 440.54" x="1028" y="514" xmlns="http://www.w3.org/2000/svg"><path d="M404.272 125.623c-10.663-10.657-23.605-15.987-38.834-15.987-15.222 0-28.164 5.33-38.828 15.987-10.656 10.66-15.984 23.601-15.984 38.831 0 11.8 3.377 22.366 10.133 31.689 6.762 9.329 15.561 15.986 26.412 19.985v112.776c0 20.177-8.949 37.404-26.837 51.678-17.891 14.273-39.396 21.412-64.524 21.412-25.122 0-46.632-7.139-64.525-21.412-17.89-14.273-26.837-31.501-26.837-51.678v-37.686c31.217-3.805 57.292-15.991 78.231-36.549 20.937-20.553 31.408-44.537 31.408-71.949V36.547c0-4.948-1.813-9.233-5.428-12.85-3.613-3.612-7.904-5.424-12.854-5.424-1.136 0-2.662.193-4.564.572-3.238-5.713-7.707-10.275-13.422-13.706C232.118 1.711 225.927 0 219.266 0c-10.085 0-18.698 3.573-25.837 10.706-7.139 7.139-10.707 15.752-10.707 25.841 0 10.085 3.568 18.699 10.707 25.837s15.752 10.707 25.837 10.707c6.281 0 12.37-1.711 18.272-5.139v114.772c0 20.179-8.945 37.402-26.836 51.68-17.893 14.271-39.403 21.406-64.525 21.406-25.122 0-46.632-7.136-64.524-21.406-17.89-14.274-26.837-31.498-26.837-51.68V67.952c5.898 3.427 11.993 5.139 18.273 5.139 10.085 0 18.699-3.568 25.837-10.707 7.137-7.139 10.704-15.752 10.704-25.837 0-10.088-3.567-18.702-10.704-25.841C91.787 3.573 83.173 0 73.088 0c-6.663 0-12.85 1.711-18.56 5.139-5.708 3.427-10.183 7.992-13.417 13.706-1.906-.378-3.427-.572-4.57-.572-4.952 0-9.233 1.812-12.85 5.424-3.615 3.617-5.424 7.902-5.424 12.85v146.178c0 27.408 10.466 51.386 31.405 71.945 20.938 20.558 47.014 32.744 78.229 36.553v37.685c0 30.266 12.515 56.103 37.546 77.512 25.031 21.413 55.15 32.117 90.358 32.117 35.221 0 65.336-10.704 90.366-32.117 25.036-21.409 37.541-47.246 37.541-77.512v-112.78c10.854-3.999 19.656-10.657 26.412-19.985 6.762-9.324 10.144-19.89 10.144-31.689-.003-15.225-5.331-28.172-15.996-38.831zm-25.973 51.678c-3.621 3.617-7.905 5.424-12.854 5.424s-9.227-1.807-12.847-5.424c-3.614-3.616-5.421-7.898-5.421-12.847 0-4.948 1.807-9.233 5.421-12.85 3.62-3.612 7.898-5.424 12.847-5.424s9.232 1.812 12.854 5.424c3.614 3.617 5.421 7.902 5.421 12.85 0 4.952-1.807 9.231-5.421 12.847z" fill="#2f5572"/></svg><svg width="514" height="514" viewBox="-1 -1 512 512" x="514" y="514" xmlns="http://www.w3.org/2000/svg"><path d="M150.45 206.55l-35.7 35.7L229.5 357l255-255-35.7-35.7-219.3 219.3-79.05-79.05zM459 255c0 112.2-91.8 204-204 204S51 367.2 51 255 142.8 51 255 51c20.4 0 38.25 2.55 56.1 7.65l40.801-40.8C321.3 7.65 288.15 0 255 0 114.75 0 0 114.75 0 255s114.75 255 255 255 255-114.75 255-255h-51z" fill="#d59541"/></svg><svg data-name="Layer 1" width="53.78" height="44.06" viewBox="-1 -1 53.78 44.06" x="778" y="1028" xmlns="http://www.w3.org/2000/svg"><path d="M51.78 5a22.23 22.23 0 0 1-5.32 5.52v1.38a30.15 30.15 0 0 1-1.25 8.53 30.81 30.81 0 0 1-3.76 8.13 32.1 32.1 0 0 1-6.06 6.92 27 27 0 0 1-8.48 4.8 31 31 0 0 1-10.62 1.8A29.47 29.47 0 0 1 0 37.29a22.71 22.71 0 0 0 2.56.13 20.78 20.78 0 0 0 13.17-4.53 10.63 10.63 0 0 1-9.92-7.36 13.45 13.45 0 0 0 2 .16 11 11 0 0 0 2.79-.36 10.44 10.44 0 0 1-6.09-3.67 10.25 10.25 0 0 1-2.41-6.75v-.13a10.52 10.52 0 0 0 4.8 1.34 10.6 10.6 0 0 1-3.45-3.78 10.34 10.34 0 0 1-1.28-5.07 10.4 10.4 0 0 1 1.45-5.33 30.08 30.08 0 0 0 9.71 7.83A29.57 29.57 0 0 0 25.53 13a11.79 11.79 0 0 1-.26-2.43 10.23 10.23 0 0 1 3-7.48 10.64 10.64 0 0 1 15 0l.21.22A20.81 20.81 0 0 0 50.33.8a10.3 10.3 0 0 1-4.67 5.85A21.14 21.14 0 0 0 51.78 5z" fill="#fff"/></svg><svg data-name="Layer 1" width="62" height="66" viewBox="-1 -1 62 66" x="580" y="1094" xmlns="http://www.w3.org/2000/svg"><path d="M29.88 0A55.39 55.39 0 0 0 0 8.72l4.22 6.48a47.32 47.32 0 0 1 25.66-7.28 47.31 47.31 0 0 1 25.9 7.28L60 8.72A55.53 55.53 0 0 0 29.88 0zm0 24a31.08 31.08 0 0 0-17 5l4.22 6.72A23.09 23.09 0 0 1 29.8 32a24.17 24.17 0 0 1 13 3.76L47 29a32.37 32.37 0 0 0-17.2-5h.07zm0 24a8 8 0 1 0 8 8 8 8 0 0 0-8-8z" fill="#d4953e"/></svg><svg data-name="Layer 1" width="36.75" height="44" viewBox="-1 -1 36.75 44" x="899.02" y="1028" xmlns="http://www.w3.org/2000/svg"><path d="M22.13 29.15v5q0 1.57-.91 1.57a1.5 1.5 0 0 1-1.06-.52v-7.11a1.5 1.5 0 0 1 1.06-.54q.91 0 .91 1.6zm7.92 0v1.08h-2.1v-1.06q0-1.59 1.06-1.59t1 1.59zM7.42 24h2.5v-2.14h-7.3v2.2h2.46V37.4h2.34V24zm6.75 13.4h2.09V25.82h-2.09v8.86a1.86 1.86 0 0 1-1.31 1 .48.48 0 0 1-.49-.47 6.52 6.52 0 0 1 0-.82v-8.57h-2.14V35a5.79 5.79 0 0 0 .19 1.71 1.26 1.26 0 0 0 1.36.87 3.43 3.43 0 0 0 2.39-1.43v1.25zm10.05-3.47v-4.6A8.33 8.33 0 0 0 24 27a1.63 1.63 0 0 0-1.67-1.31A2.82 2.82 0 0 0 20.16 27v-5.1h-2.08v15.5h2.09v-1.13a2.91 2.91 0 0 0 2.18 1.31A1.62 1.62 0 0 0 24 36.27a8.61 8.61 0 0 0 .22-2.35zm7.92-.24v-.3H30a11.6 11.6 0 0 1 0 1.43.9.9 0 0 1-.94.85q-1.08 0-1.08-1.61V32h4.19v-2.41a4.65 4.65 0 0 0-.66-2.72 3.2 3.2 0 0 0-5 0 4.52 4.52 0 0 0-.66 2.72v4.05a4.4 4.4 0 0 0 .66 2.72 3 3 0 0 0 2.49 1.2 2.9 2.9 0 0 0 3-2.51 10.31 10.31 0 0 0 .09-1.36zM17.89 12.3V7.38q0-1.61-1-1.61t-1 1.61v4.92q0 1.64 1 1.64t1-1.64zm16.85 17.6a40.6 40.6 0 0 1-.61 8.2 4.45 4.45 0 0 1-1.36 2.32 4.1 4.1 0 0 1-2.39 1.08 125.31 125.31 0 0 1-13 .49 125.31 125.31 0 0 1-13-.49A4.15 4.15 0 0 1 2 40.42 4.28 4.28 0 0 1 .63 38.1 39.76 39.76 0 0 1 0 29.9a40.6 40.6 0 0 1 .61-8.2A4.45 4.45 0 0 1 2 19.37a4.25 4.25 0 0 1 2.41-1.1q4.29-.47 13-.47t13 .47a4.4 4.4 0 0 1 3.75 3.42 39.76 39.76 0 0 1 .58 8.21zM11.35 0h2.39l-2.83 9.35v6.35H8.57V9.35a39.68 39.68 0 0 0-1.43-5Q6.27 2 5.61 0H8.1l1.67 6.16zM20 7.8v4.1a4.59 4.59 0 0 1-.66 2.76 2.88 2.88 0 0 1-2.49 1.19 2.9 2.9 0 0 1-2.46-1.19 4.68 4.68 0 0 1-.66-2.76V7.8a4.59 4.59 0 0 1 .66-2.74 2.9 2.9 0 0 1 2.46-1.19 2.88 2.88 0 0 1 2.49 1.19A4.59 4.59 0 0 1 20 7.8zM27.87 4v11.7h-2.13v-1.27a3.37 3.37 0 0 1-2.41 1.45A1.31 1.31 0 0 1 22 15a6 6 0 0 1-.19-1.76V4h2.13v8.6a6.14 6.14 0 0 0 0 .82.49.49 0 0 0 .47.52 1.87 1.87 0 0 0 1.31-1V4h2.16z" fill="#fff"/></svg></svg>